HIERARCHY
ROOT root
{
OFFSET 0 0 0
CHANNELS 6 Xposition Yposition Zposition Zrotation Yrotation Xrotation
JOINT LeftUpLeg
{
OFFSET 11.3458 0 0
CHANNELS 3 Zrotation Yrotation Xrotation
JOINT LeftLeg
{
OFFSET 0.00037167 -41.5903 -2.53478
CHANNELS 3 Zrotation Yrotation Xrotation
JOINT LeftFoot
{
OFFSET 0.000211091 -44.3828 2.85594
CHANNELS 3 Zrotation Yrotation Xrotation
JOINT LeftToes
{
OFFSET 0 0 16.4975
CHANNELS 3 Zrotation Yrotation Xrotation
End Site
{
OFFSET 0.0799999 -0.047448 9.77978
}
}
}
}
}
JOINT Spine
{
OFFSET 1.82187 23.9065 -8.41027
CHANNELS 3 Zrotation Yrotation Xrotation
JOINT Spine1
{
OFFSET 0 24.995 0.000605945
CHANNELS 3 Zrotation Yrotation Xrotation
JOINT RightShoulder
{
OFFSET -8.98999 1.33453 -0.219958
CHANNELS 3 Zrotation Yrotation Xrotation
JOINT RightArm
{
OFFSET -10.5221 1.15288 0.21561
CHANNELS 3 Zrotation Yrotation Xrotation
JOINT RightForeArm
{
OFFSET -25.1789 -0.412611 -0.112648
CHANNELS 3 Zrotation Yrotation Xrotation
JOINT RightHand
{
OFFSET -23.0777 0.07562 -0.0136592
CHANNELS 3 Zrotation Yrotation Xrotation
End Site
{
OFFSET -13.3284 -0.6 1.50291
}
}
}
}
}
JOINT LeftShoulder1
{
OFFSET 8.98999 1.33453 -0.219959
CHANNELS 3 Zrotation Yrotation Xrotation
JOINT LeftArm
{
OFFSET 10.522 1.15329 0.220044
CHANNELS 3 Zrotation Yrotation Xrotation
JOINT LeftForeArm
{
OFFSET 25.1788 -0.414099 -0.112978
CHANNELS 3 Zrotation Yrotation Xrotation
JOINT LeftHand
{
OFFSET 23.0777 0.0751808 -0.0137337
CHANNELS 3 Zrotation Yrotation Xrotation
End Site
{
OFFSET 13.419 -0.6 1.50292
}
}
}
}
}
JOINT HEad
{
OFFSET -0.0706832 19.3422 -6.30919
CHANNELS 3 Zrotation Yrotation Xrotation
End Site
{
OFFSET -0.29 12.7742 2.51394
}
}
}
}
JOINT RightUpLeg
{
OFFSET -11.3458 0 0
CHANNELS 3 Zrotation Yrotation Xrotation
JOINT RightLeg
{
OFFSET -0.000218165 -41.5901 -2.53712
CHANNELS 3 Zrotation Yrotation Xrotation
JOINT RightFoot
{
OFFSET 0.101694 -44.3826 2.85855
CHANNELS 3 Zrotation Yrotation Xrotation
JOINT RightToes
{
OFFSET 0.0347039 1.3914e-005 16.4975
CHANNELS 3 Zrotation Yrotation Xrotation
End Site
{
OFFSET -0.0799999 -0.137448 9.77979
}
}
}
}
}
}
MOTION
Frames: 12
Frame Time: 0.033333
53.0205 80.7811 -26.7955 -4.68602 -16.1468 19.2772 16.478 6.59637 -49.945 -1.96016 -2.21416 45.2187 -0.347875 0.00912816 1.91798 1.0799e-007 1.41006e-006 -41.6416 -1.53554 1.7129 4.93203 -3.08749 4.03294 9.19007 -0.0068039 8.23569e-005 0.217195 59.8979 16.5851 -66.1849 8.19976 18.0992 45.7395 -12.2842 -4.12818 9.80057 -4.95415e-022 -2.42657e-020 0 -41.3066 -21.3975 -43.7547 -13.5699 -28.1793 42.2168 18.2565 -3.69477 8.48509 15.185 -19.6804 -64.6649 0.230009 -27.7503 -56.1903 1.74125 1.10561 64.9983 0.328184 -0.116248 -0.975455 -0.192001 0.531899 -28.0541 
51.1721 78.2701 -26.5656 -4.14858 -18.2993 18.3172 17.753 6.70344 -53.3399 -0.690802 -0.543515 55.486 -0.12925 0.00755415 -0.0308738 1.07982e-007 1.41006e-006 -43.6399 -2.0101 2.02801 5.66339 -3.55015 4.51236 10.5995 -0.0068039 8.23569e-005 0.217195 60.1659 18.055 -67.2921 9.34225 20.3838 44.8895 -12.6878 -4.07697 9.79066 -4.95415e-022 -2.42657e-020 0 -41.207 -19.5286 -46.1288 -11.892 -24.8635 39.502 19.202 -2.36219 8.6326 18.946 -22.9282 -68.6247 -5.59429 -27.6213 -53.9573 0.62934 0.55569 61.4043 0.432838 -0.109095 5.54969 -0.180962 0.541849 -26.5351 
48.9692 76.2351 -26.2849 -3.06469 -19.6772 17.916 16.6784 11.1476 -54.4263 -3.2503 -2.21042 59.4977 -0.232138 -0.00149742 -1.69444 1.0799e-007 1.41006e-006 -48.9844 -2.65099 2.30409 5.94857 -4.41855 4.9677 11.1645 -0.0068039 8.23569e-005 0.217195 61.2273 18.3681 -67.2752 9.78587 21.2303 44.3743 -15.6785 -4.75463 9.85097 -4.95415e-022 -2.42657e-020 0 -41.2993 -18.0619 -46.767 -10.7137 -22.3889 37.5971 18.9992 -2.08416 8.69268 22.1712 -26.3237 -71.519 -11.1852 -26.3646 -51.0636 7.77213 5.89907 57.4829 2.89564 -0.281958 11.5314 -0.335044 0.320106 -54.4089 
45.7637 74.6074 -26.1945 -3.60889 -19.7393 16.5947 19.1526 13.6759 -52.7554 -5.68475 -3.63854 61.1627 -0.179012 0.00195309 -3.31547 1.07987e-007 1.41006e-006 -52.3255 -2.1072 2.46979 6.28212 -3.65249 5.45719 11.8026 -0.0068039 8.23569e-005 0.217195 61.6403 18.2798 -67.2064 9.5418 20.7335 44.3595 -15.979 -5.12065 9.9008 -4.95415e-022 -2.42657e-020 0 -42.7646 -17.0741 -46.9968 -9.7891 -20.5081 37.2548 18.3546 -2.08065 8.73587 21.846 -29.533 -70.0631 -12.8415 -24.9158 -47.2848 13.1865 9.63518 58.6025 2.11171 -0.0957244 2.34802 -0.359158 0.238795 -63.086 
43.0439 73.976 -26.7607 -2.41898 -19.207 15.9123 21.5102 10.0465 -51.4566 -3.21948 -2.17316 59.6956 -0.27962 -0.00382009 -1.71863 1.07988e-007 1.41006e-006 -55.6867 -1.9515 2.17984 6.53214 -3.63246 5.00574 12.2956 -0.0068039 8.23569e-005 0.217195 62.1571 18.1304 -67.3116 9.6225 20.6945 42.5062 -13.5055 -4.87135 9.87553 -4.95415e-022 -2.42657e-020 0 -44.4353 -16.3832 -48.2169 -9.97711 -20.8092 36.5515 17.3801 -2.27579 8.77054 22.4764 -31.5741 -71.3717 -11.1178 -27.3429 -48.8193 13.3348 8.43618 62.405 0.699518 -0.0993678 -2.49574 -0.347138 0.284888 -58.2157 
40.5414 74.7349 -27.8237 -1.14944 -20.6303 16.7527 23.3057 6.59375 -49.1404 1.1271 0.911125 54.7361 0.00112798 0.0144891 1.9095 1.07987e-007 1.41006e-006 -55.5125 -2.1019 2.41013 6.37293 -4.07841 5.52341 11.9669 -0.0068039 8.23569e-005 0.217195 62.7489 17.7277 -66.3871 9.73254 20.7067 40.5915 -13.1676 -4.52649 9.83714 -4.95415e-022 -2.42657e-020 0 -45.7951 -15.7802 -48.2471 -10.8817 -22.4749 35.3842 16.3094 -2.25997 8.84505 22.4862 -32.6067 -72.4419 -8.9026 -26.0416 -52.0383 10.5093 6.3207 63.6136 0.359361 -0.117998 -3.5656 -0.330686 0.331186 -53.1921 
37.6281 76.3707 -28.8493 -0.747943 -21.6668 17.4119 25.064 4.88999 -45.7494 3.59648 3.66329 48.2114 0.970958 -0.0153764 8.25486 1.07984e-007 1.41006e-006 -54.7146 -2.001 2.38147 5.98875 -4.21588 5.58986 11.2254 -0.0068039 8.23569e-005 0.217195 63.8044 17.2313 -64.5869 9.69487 20.5864 40.1974 -14.258 -4.99231 9.88769 -4.95415e-022 -2.42657e-020 0 -46.0142 -14.888 -47.0029 -11.7545 -24.1696 35.4928 15.3848 -2.48336 8.87726 21.3024 -32.6113 -69.7088 -8.23885 -21.3927 -51.1506 7.42158 4.98547 60.8264 0.177375 -0.131324 -4.40912 -0.328901 0.335537 -52.7113 
35.0446 78.5282 -29.7429 -0.124551 -22.0408 17.3008 25.3003 4.25479 -43.9602 5.52948 6.44477 44.4582 3.21453 -0.376159 18.3508 1.07987e-007 1.41006e-006 -53.0981 -2.06973 1.69377 5.68606 -4.39721 4.20238 10.6894 -0.0068039 8.23569e-005 0.217195 64.9295 17.3902 -63.8851 9.76844 20.5104 38.1695 -13.7828 -5.26864 9.92239 -4.95415e-022 -2.42657e-020 0 -45.5894 -13.0347 -45.5174 -13.9097 -28.2381 37.1453 15.116 -2.84302 8.84853 20.2684 -31.5453 -66.6381 -7.92131 -18.1533 -48.8099 5.45782 4.29233 56.7094 0.278948 -0.122828 -3.54313 -0.329957 0.346045 -51.5433 
33.5128 81.1566 -30.6522 0.355919 -23.7322 17.4576 22.7517 6.206 -44.5268 3.65581 3.92244 46.7275 2.29121 -0.313415 21.3119 1.07989e-007 1.41006e-006 -42.7715 -2.17387 1.4136 5.65317 -4.6461 3.65694 10.5722 -0.0068039 8.23569e-005 0.217195 65.1601 18.157 -65.1339 9.86204 20.542 36.7531 -12.9456 -5.15716 9.91008 -4.95415e-022 -2.42657e-020 0 -44.8462 -12.6186 -43.6387 -15.8855 -31.6898 38.6338 16.1899 -2.81758 8.77445 20.3872 -30.7547 -65.6669 -6.70538 -17.9718 -47.8067 7.1151 6.50235 52.2565 1.05498 -0.0995043 1.21089 -0.331867 0.3347 -52.804 
32.702 83.7639 -31.7444 0.379028 -26.7827 19.0222 18.9545 9.09872 -46.9605 -3.65466 -3.28947 51.7465 -1.70492 0.222682 16.2637 1.07989e-007 1.41006e-006 -34.1117 -2.085 1.52461 5.38352 -4.40533 3.82113 10.0134 -0.0068039 8.23569e-005 0.217195 63.9932 19.266 -67.3688 9.83061 20.4261 36.2861 -13.3576 -5.53426 9.95362 -4.95415e-022 -2.42657e-020 0 -44.7912 -13.2797 -42.3159 -17.3628 -34.1136 39.9932 17.1277 -2.82844 8.70505 20.1794 -30.722 -65.2895 -3.75977 -19.9748 -49.6448 11.5022 11.8693 48.8302 3.6736 -0.246262 8.25996 -0.331238 0.32982 -53.3427 
31.7467 85.835 -32.9024 -1.12638 -30.7089 21.6276 14.151 15.3234 -48.5771 -4.63532 -4.13114 52.0601 -1.60579 0.13185 11.1221 1.07991e-007 1.41006e-006 -43.5774 -1.63835 2.08352 4.98147 -3.39898 4.84271 9.24343 -0.0068039 8.23569e-005 0.217195 62.5465 19.6069 -69.0204 9.98033 20.6234 35.3402 -14.6193 -6.00366 10.0163 -4.95415e-022 -2.42657e-020 0 -44.9539 -14.1706 -41.6968 -18.8734 -36.3789 40.8348 16.7246 -3.2176 8.67751 20.2036 -30.8482 -65.8475 1.28106 -22.086 -52.5794 16.3673 18.3852 46.9375 7.99068 -0.801694 13.8859 -0.324402 0.346063 -51.5413 
30.5753 86.9003 -33.8364 -2.45638 -33.7611 23.8554 10.3382 19.0894 -48.9349 -3.52088 -3.71544 47.1982 -0.871773 0.0381664 6.03416 1.07987e-007 1.41006e-006 -47.7066 -1.28239 2.31563 4.66429 -2.64748 5.27065 8.63698 -0.0068039 8.23569e-005 0.217195 61.6353 19.4068 -69.7849 10.1113 20.8267 34.7969 -14.3964 -5.44145 9.94396 -4.95415e-022 -2.42657e-020 0 -43.7839 -14.5531 -41.2697 -20.6603 -38.7722 40.718 15.969 -3.31094 8.72179 20.6239 -30.3523 -66.5897 5.06796 -23.8481 -55.0327 14.2226 15.5331 47.458 5.7669 -0.475004 11.2701 -0.312428 0.371553 -48.6624 
